<svg xmlns="http://www.w3.org/2000/svg" width="512" height="512" viewBox="0 0 512 512" version="1.1">
	<path d="M 235.481 6.339 C 231.179 8.292, 226.274 14.270, 224.955 19.169 C 223.922 23.004, 224.491 26.222, 231.592 56.670 C 235.863 74.988, 239.125 90.208, 238.841 90.492 C 238.556 90.777, 235.939 90.557, 233.025 90.005 C 225.477 88.573, 209.639 88.793, 201.883 90.437 C 198.243 91.209, 188.612 94.352, 180.481 97.423 C 172.350 100.494, 162.908 103.520, 159.500 104.148 C 153.618 105.232, 152.697 105.110, 141.401 101.742 C 123.599 96.434, 123.488 96.421, 120.528 99.381 C 119.138 100.772, 118 102.555, 118 103.345 C 118 105.746, 126.898 117.055, 135.144 125.134 L 142.936 132.767 134.718 137.512 C 112.394 150.403, 86.667 173.421, 71.372 194.190 C 45.575 229.221, 32.887 269.393, 34.322 311.500 C 34.914 328.879, 36.576 340.251, 40.680 355 C 65.516 444.264, 154.381 506.993, 256 506.993 C 381.647 506.993, 482.216 412.633, 477.679 299 C 476.957 280.929, 474.211 265.688, 468.611 248.681 C 454.514 205.866, 425.765 169.133, 385.937 143.050 L 374.373 135.477 381.320 130.488 C 388.535 125.307, 405.474 108.245, 407.878 103.738 C 409.650 100.414, 408.618 96.239, 405.694 94.906 C 403.967 94.120, 401.352 94.488, 394.471 96.489 C 383.456 99.692, 369.262 100.735, 359.386 99.067 C 355.219 98.363, 347.557 95.785, 340.886 92.842 C 334.624 90.080, 325.900 86.245, 321.500 84.320 C 309.484 79.065, 300.043 76.932, 289 76.979 C 283.775 77.001, 278.639 77.127, 277.586 77.259 C 275.878 77.474, 274.844 74.197, 267.962 46.767 C 263.722 29.864, 259.530 14.931, 258.647 13.584 C 257.764 12.236, 255.413 9.891, 253.423 8.373 C 249.122 5.093, 240.403 4.104, 235.481 6.339 M 247.989 36.250 C 246.899 38.038, 246.006 40.802, 246.004 42.393 C 246.002 43.984, 249.834 61.713, 254.520 81.790 C 259.206 101.866, 262.858 118.475, 262.636 118.697 C 262.414 118.920, 258.554 118.163, 254.060 117.015 C 237.335 112.745, 223.722 113.345, 207.500 119.067 C 203.100 120.619, 194.325 123.711, 188 125.938 C 180.366 128.626, 174.651 130.023, 171 130.093 L 165.500 130.198 170 131.638 C 177.693 134.099, 189.489 134.450, 199 132.500 C 213.087 129.612, 214.303 129.573, 216.444 131.938 C 219.379 135.182, 221.085 145.173, 219.847 151.872 C 218.603 158.599, 216.548 162.765, 208.744 174.377 C 203.251 182.549, 197.436 193.769, 198.263 194.597 C 198.455 194.788, 205.236 194.554, 213.333 194.076 C 226.202 193.317, 228.738 192.874, 233.480 190.553 C 240.801 186.972, 246.770 180.034, 253.052 167.805 C 259.346 155.551, 261.648 153, 266.412 153 C 269.544 153, 270.495 153.727, 275.396 159.869 C 284.683 171.509, 294.218 178.309, 308.745 183.651 C 328.510 190.918, 329.131 191.227, 335.067 196.722 L 341 202.215 341 197.318 C 341 180.526, 328.418 158.894, 312.744 148.737 C 307.056 145.052, 305.505 142.181, 307.195 138.472 C 308.639 135.301, 311.432 134.597, 319.836 135.286 C 340.149 136.949, 364.371 129.388, 378.090 117.100 L 383.495 112.259 371.497 112.208 C 356.067 112.141, 348.287 110.126, 328.199 100.990 C 307.144 91.414, 300.676 89.502, 289.333 89.501 C 284.292 89.500, 279.925 89.741, 279.631 90.036 C 279.336 90.331, 279.998 94.098, 281.102 98.407 C 283.666 108.415, 283.358 111.960, 279.750 113.969 C 277.292 115.337, 276.708 115.339, 274.250 113.988 C 271.632 112.548, 271.022 110.564, 261.570 72.738 C 256.108 50.882, 251.264 33, 250.805 33 C 250.346 33, 249.079 34.462, 247.989 36.250" stroke="none" fill="black" fill-rule="evenodd"/>
</svg>